<svg xmlns="http://www.w3.org/2000/svg" viewBox="0 0 512 512">
  <defs>
    <linearGradient id="petFelizGreen" x1="0%" y1="0%" x2="100%" y2="100%">
      <stop offset="0%" stop-color="#10b981"/>
      <stop offset="100%" stop-color="#059669"/>
    </linearGradient>
  </defs>
  <g fill="url(#petFelizGreen)">
    <ellipse cx="118" cy="210" rx="44" ry="58" transform="rotate(-24 118 210)" />
    <ellipse cx="206" cy="132" rx="46" ry="62" transform="rotate(-7 206 132)" />
    <ellipse cx="306" cy="132" rx="46" ry="62" transform="rotate(7 306 132)" />
    <ellipse cx="394" cy="210" rx="44" ry="58" transform="rotate(24 394 210)" />
    <path d="M 256,224 C 202,224 146,270 146,338 C 146,386 172,438 218,438 C 238,438 246,420 256,420 C 266,420 274,438 294,438 C 340,438 366,386 366,338 C 366,270 310,224 256,224 Z" />
  </g>
</svg>
